<?xml version="1.0" standalone="no"?>
<!DOCTYPE svg PUBLIC "-//W3C//DTD SVG 20010904//EN"
 "http://www.w3.org/TR/2001/REC-SVG-20010904/DTD/svg10.dtd">
<svg version="1.0" xmlns="http://www.w3.org/2000/svg"
 width="1600.000000pt" height="1600.000000pt" viewBox="0 0 1600.000000 1600.000000"
 preserveAspectRatio="xMidYMid meet">
<metadata>
Created by potrace 1.11, written by Peter Selinger 2001-2013
</metadata>
<g transform="translate(0.000000,1600.000000) scale(0.100000,-0.100000)"
fill="#000000" stroke="none">
<path d="M5765 11055 c-107 -26 -233 -92 -327 -172 -139 -118 -332 -357 -434
-538 -106 -186 -284 -547 -284 -573 0 -5 -6 -22 -14 -38 -61 -128 -166 -431
-222 -639 -2 -5 -12 -41 -24 -80 -23 -78 -83 -313 -106 -420 -22 -98 -22 -98
-29 -141 -4 -22 -9 -48 -11 -59 -1 -11 -5 -31 -8 -45 -3 -14 -8 -43 -11 -65
-4 -22 -8 -51 -11 -65 -2 -14 -6 -41 -8 -60 -3 -19 -7 -55 -11 -80 -7 -49 -9
-63 -21 -195 -10 -103 -10 -526 -1 -630 8 -83 16 -137 27 -187 7 -35 6 -38
-31 -62 -21 -15 -40 -26 -42 -26 -3 0 -53 -28 -113 -63 -249 -145 -472 -242
-575 -250 -55 -4 -84 20 -98 82 -5 25 -8 147 -5 280 4 260 7 311 25 373 7 24
13 45 14 48 5 20 37 128 42 140 3 8 7 20 9 27 1 6 17 58 34 115 18 57 33 108
34 113 2 6 17 57 35 115 48 158 73 239 75 253 1 7 12 45 24 85 34 111 74 252
88 307 86 343 124 508 138 601 4 22 11 64 16 94 27 154 35 242 34 420 0 85 -3
175 -7 200 -4 25 -9 59 -11 77 -14 92 -70 204 -124 246 -40 30 -112 55 -187
63 -27 3 -63 7 -80 10 -16 3 -50 7 -75 9 -87 7 -154 49 -145 88 3 12 -1 39 -9
59 -17 39 -67 70 -141 86 -46 9 -241 9 -330 -2 -33 -4 -80 -9 -104 -11 -24 -2
-51 -7 -60 -9 -9 -3 -32 -8 -51 -11 -215 -36 -593 -179 -785 -297 -16 -10 -38
-21 -47 -24 -10 -4 -18 -10 -18 -15 0 -5 -5 -9 -10 -9 -31 0 -353 -237 -475
-351 -355 -328 -619 -668 -836 -1074 -75 -141 -179 -361 -179 -379 0 -6 -4
-16 -9 -22 -21 -22 -148 -395 -165 -484 -2 -14 -9 -45 -15 -70 -7 -25 -14 -56
-16 -70 -12 -64 -18 -96 -20 -106 -2 -6 -6 -37 -10 -70 -4 -32 -9 -70 -11 -84
-4 -24 -17 -275 -15 -295 0 -5 2 -45 5 -88 4 -66 15 -153 31 -242 10 -52 38
-151 46 -159 5 -6 9 -18 9 -28 0 -10 4 -26 10 -36 5 -9 27 -54 49 -99 104
-214 255 -377 459 -496 35 -20 69 -37 77 -37 7 0 15 -3 17 -8 3 -8 134 -54
208 -73 113 -29 321 -41 457 -26 245 27 536 156 778 346 66 52 238 218 297
288 105 124 238 321 322 478 46 85 50 89 42 45 -4 -19 -9 -55 -12 -80 -3 -25
-7 -51 -9 -58 -8 -22 -19 -194 -18 -272 0 -92 10 -196 23 -238 5 -18 9 -36 10
-40 3 -28 25 -91 49 -142 79 -167 218 -252 411 -252 198 -1 485 96 765 257 61
35 216 135 231 150 22 20 133 97 139 96 3 0 23 -34 45 -75 72 -139 165 -246
260 -300 30 -17 61 -32 70 -34 45 -10 161 -8 223 4 72 14 263 70 282 84 6 3
26 13 45 20 39 15 241 114 310 152 184 102 182 101 191 87 5 -8 9 -16 9 -19 0
-7 51 -65 108 -123 72 -75 209 -160 292 -182 94 -24 133 -29 235 -29 66 0 134
3 150 7 17 3 44 9 60 12 84 17 228 84 319 149 59 42 154 131 206 192 30 34
120 163 120 171 0 3 8 17 19 31 36 51 143 319 156 392 1 3 4 19 8 35 3 17 9
46 11 65 3 19 8 46 12 60 3 14 7 88 9 166 3 202 -23 358 -91 542 -20 53 -40
101 -45 107 -11 11 -11 26 0 44 9 14 45 -9 325 -209 53 -38 199 -150 232 -177
11 -10 39 -33 61 -51 39 -31 41 -35 37 -80 -2 -26 -6 -130 -8 -231 -3 -101 -7
-186 -10 -189 -3 -2 -1 -13 4 -23 7 -12 7 -20 0 -24 -6 -4 -7 -13 -2 -22 5 -8
6 -31 3 -52 -13 -77 -3 -527 14 -631 21 -134 71 -232 135 -265 38 -20 116 -27
162 -14 22 5 55 27 78 50 39 39 54 69 189 354 34 72 70 146 80 165 57 106 85
156 121 216 22 36 40 70 40 75 0 5 5 9 10 9 6 0 10 4 10 9 0 11 160 253 247
374 128 177 234 306 348 424 69 71 85 83 113 83 l34 0 -31 -55 c-17 -30 -31
-61 -31 -69 0 -8 -4 -16 -8 -18 -11 -4 -137 -302 -152 -359 -7 -24 -15 -48
-18 -54 -4 -5 -7 -14 -8 -20 -1 -5 -14 -53 -28 -105 -27 -101 -31 -122 -42
-210 -8 -68 -3 -189 11 -260 46 -229 115 -373 235 -489 98 -96 187 -129 331
-126 86 3 199 28 284 65 87 37 294 142 320 163 19 15 117 77 121 77 3 0 14 9
26 20 30 28 41 25 63 -17 50 -95 159 -196 270 -251 116 -58 221 -75 360 -59
33 4 62 7 65 7 12 -3 189 63 220 81 8 5 31 16 50 24 87 40 224 139 325 237
l70 67 38 -77 c104 -208 190 -297 332 -338 112 -32 309 -2 430 66 74 42 160
94 165 99 3 3 32 26 65 50 82 62 344 326 345 350 1 3 14 21 29 39 16 19 28 39
27 45 -2 7 -6 28 -10 47 -4 19 -8 42 -10 50 -2 8 -6 26 -9 40 -12 49 -37 165
-41 190 -9 46 -46 215 -51 228 -3 9 -19 -4 -42 -35 -172 -227 -315 -378 -455
-480 -44 -32 -82 -58 -86 -59 -4 0 -25 -9 -47 -19 -22 -10 -63 -20 -91 -23
-103 -9 -134 59 -132 288 1 80 5 159 9 175 4 17 10 57 14 90 4 32 9 63 11 67
3 4 7 22 8 40 6 49 17 122 21 128 2 3 6 24 9 46 4 22 9 51 11 64 3 14 8 39 11
55 4 17 7 39 9 50 2 18 10 64 22 120 2 11 6 34 8 50 3 17 7 41 10 55 16 81 25
302 14 355 -9 46 -47 101 -83 118 -29 15 -61 19 -154 20 -180 1 -214 13 -272
97 -57 84 -94 100 -206 95 -49 -2 -105 -7 -124 -10 -71 -14 -246 -80 -268
-102 -7 -7 -19 -13 -25 -13 -7 0 -32 -14 -57 -30 -25 -17 -54 -36 -64 -43
-138 -89 -337 -295 -456 -472 -19 -27 -40 -56 -47 -63 -7 -7 -13 -18 -13 -24
0 -6 -6 -19 -14 -27 -22 -26 -105 -188 -151 -296 -58 -138 -118 -338 -129
-435 -5 -39 -13 -52 -61 -96 -60 -56 -197 -154 -214 -154 -6 0 -11 -3 -11 -8
0 -4 -15 -13 -32 -21 -18 -7 -46 -19 -63 -26 -77 -34 -159 -44 -196 -25 -24
13 -55 73 -64 125 -12 62 -7 227 9 315 3 14 7 42 11 64 3 21 10 47 16 57 5 10
8 19 6 19 -6 0 57 205 133 435 55 167 88 277 94 310 1 6 5 16 9 23 5 6 6 12 4
12 -2 0 2 33 9 73 7 39 12 122 10 182 -2 93 -6 117 -25 155 -38 74 -71 102
-151 126 -61 19 -208 -17 -282 -68 -14 -10 -29 -18 -33 -18 -9 0 -119 -84
-194 -149 -114 -99 -316 -314 -426 -455 -16 -21 -35 -44 -40 -50 -6 -6 -35
-42 -65 -81 -87 -111 -81 -107 -109 -86 l-24 18 53 99 c29 55 69 128 88 164
132 242 381 739 454 904 22 50 48 109 58 131 43 94 73 164 97 225 14 36 29 69
34 74 5 6 9 16 9 24 0 8 6 28 14 45 34 79 115 297 121 327 2 8 10 35 18 60 17
50 56 190 62 221 2 12 7 29 10 39 7 23 15 57 20 92 2 15 6 31 8 35 4 7 9 33
22 134 5 33 18 201 17 214 -7 111 -13 185 -18 205 -3 14 -7 36 -10 50 -2 14
-7 32 -11 40 -3 8 -7 17 -7 20 -6 30 -56 107 -91 142 -85 86 -200 120 -374
114 -142 -6 -229 -28 -347 -91 -128 -68 -277 -201 -364 -325 -14 -19 -28 -37
-31 -40 -4 -3 -21 -30 -39 -60 -18 -30 -40 -63 -48 -72 -8 -10 -12 -18 -8 -18
4 0 -1 -12 -12 -27 -64 -91 -185 -386 -252 -613 -12 -41 -26 -86 -30 -100 -10
-26 -66 -248 -74 -290 -2 -14 -11 -56 -20 -95 -9 -38 -18 -81 -20 -95 -3 -14
-10 -50 -16 -80 -14 -73 -21 -109 -26 -145 -3 -16 -7 -43 -10 -60 -3 -16 -7
-41 -9 -55 -5 -36 -14 -99 -21 -140 -3 -19 -8 -51 -10 -70 -2 -19 -6 -48 -8
-65 -7 -41 -19 -165 -20 -192 0 -13 -2 -23 -5 -23 -4 0 -6 -21 -7 -48 0 -44
-11 -181 -19 -247 -3 -16 -5 -51 -6 -77 -1 -27 -5 -48 -8 -48 -4 0 -31 24 -62
53 -46 44 -138 123 -174 149 -5 4 -23 18 -40 31 -16 13 -45 32 -62 42 -18 11
-33 23 -33 27 0 4 -4 8 -10 8 -5 0 -38 17 -72 38 -87 53 -268 138 -268 125 0
-3 -6 0 -14 6 -14 12 -141 48 -221 62 -124 22 -289 29 -395 17 -36 -4 -83 -10
-106 -13 -75 -9 -218 -55 -309 -100 -85 -41 -144 -74 -155 -85 -3 -3 -30 -24
-61 -47 -91 -70 -259 -258 -259 -290 0 -6 -6 -16 -14 -22 -30 -25 -144 -292
-160 -374 -2 -12 -9 -42 -15 -67 -12 -46 -16 -69 -27 -150 -9 -67 -12 -318 -4
-379 8 -62 11 -58 -160 -163 -171 -105 -298 -160 -392 -172 -40 -6 -51 -3 -69
15 -22 22 -66 109 -75 151 -22 91 -31 153 -28 203 5 104 86 388 125 440 5 6
32 58 62 115 30 58 89 168 131 244 42 76 76 142 76 147 0 4 3 9 8 11 4 2 17
23 29 48 30 60 80 152 90 166 4 6 21 35 37 65 290 545 444 867 546 1144 12 33
26 69 30 80 15 35 89 274 92 297 2 13 7 29 11 36 5 6 6 12 3 12 -3 0 2 21 10
48 8 26 17 67 20 92 3 24 8 48 10 52 7 11 13 46 16 91 2 20 5 37 8 37 13 0 19
367 8 475 -20 183 -108 335 -225 387 -57 26 -181 32 -258 13z m3743 -506 c25
-39 31 -150 17 -284 -8 -79 -11 -93 -15 -97 -1 -2 -4 -16 -6 -33 -5 -26 -34
-151 -50 -210 -3 -11 -7 -31 -10 -44 -3 -13 -26 -87 -51 -165 -26 -78 -47
-143 -48 -146 0 -3 -5 -18 -12 -35 -6 -16 -23 -61 -37 -100 -14 -38 -31 -83
-37 -100 -7 -16 -13 -32 -13 -35 -2 -8 -215 -514 -249 -590 -11 -25 -21 -49
-23 -55 -2 -8 -283 -662 -313 -730 -10 -21 -10 -12 4 135 4 41 9 89 10 105 2
17 4 30 4 30 1 0 4 20 6 45 4 43 8 82 19 160 3 19 8 55 11 80 3 25 7 54 9 65
2 11 7 45 11 75 4 30 9 64 11 75 3 11 7 36 10 55 3 19 12 73 20 120 9 47 17
96 19 110 2 14 14 72 25 130 27 134 28 138 34 158 3 9 8 31 11 47 3 17 16 73
30 125 26 98 34 128 39 145 14 56 41 136 56 165 10 19 18 37 17 40 -1 10 58
136 150 320 129 260 221 401 288 442 38 23 47 23 63 -3z m-3811 -161 c25 -41
19 -223 -13 -370 -8 -40 -18 -84 -20 -98 -10 -53 -74 -270 -109 -370 -80 -228
-189 -492 -317 -760 -97 -204 -137 -281 -253 -495 -26 -49 -55 -102 -62 -117
-8 -16 -17 -28 -20 -28 -5 0 5 258 13 320 2 19 6 58 9 85 13 118 21 171 62
395 2 13 13 60 23 105 10 45 21 92 24 105 3 14 14 57 26 95 11 39 22 79 24 90
3 11 15 52 27 90 12 39 24 78 26 87 2 15 62 179 86 238 6 14 11 27 12 30 1 3
7 18 13 33 7 16 12 33 12 38 0 5 5 9 10 9 6 0 10 10 10 23 0 13 4 27 9 33 5 5
29 50 54 99 92 180 203 320 282 356 48 22 61 23 72 7z m-2562 -333 c33 -3 71
-8 85 -10 14 -3 41 -7 60 -10 19 -3 47 -10 62 -16 l26 -11 -20 -71 c-11 -39
-22 -78 -23 -87 -2 -8 -4 -15 -5 -15 -1 0 -3 -8 -5 -17 -2 -9 -8 -32 -14 -50
-6 -18 -12 -44 -15 -58 -5 -23 -62 -236 -156 -580 -21 -80 -45 -165 -51 -190
-7 -25 -13 -47 -14 -50 -1 -3 -5 -18 -9 -35 -5 -16 -19 -70 -33 -120 -14 -49
-26 -97 -28 -105 -3 -13 -88 -330 -126 -470 -7 -25 -13 -47 -14 -50 -16 -81
-107 -373 -132 -422 -7 -15 -14 -31 -14 -35 -1 -11 -45 -106 -82 -178 -162
-316 -329 -535 -570 -750 -88 -79 -298 -199 -382 -220 -5 -1 -17 -5 -25 -8
-71 -29 -373 -45 -411 -22 -6 5 -22 9 -33 10 -49 6 -160 71 -216 128 -84 83
-156 237 -174 372 -3 22 -9 63 -12 90 -16 114 -5 347 21 480 5 25 36 168 40
185 1 3 5 19 9 35 4 17 22 75 39 130 17 55 31 102 32 105 9 29 80 208 92 230
7 14 13 29 13 33 0 16 168 355 179 361 6 4 11 16 11 26 0 10 3 20 8 22 4 2 16
19 26 38 92 168 279 433 430 609 93 109 319 323 416 394 58 43 110 82 117 87
7 6 15 10 18 10 4 0 30 15 58 34 43 28 171 92 252 126 32 14 146 47 200 60
102 22 239 28 370 15z m3730 -2024 c77 -35 134 -114 174 -244 30 -95 45 -344
26 -462 -3 -22 -8 -56 -10 -75 -8 -57 -35 -159 -67 -254 -69 -208 -182 -376
-290 -432 -29 -15 -121 -22 -158 -11 -8 2 -28 8 -45 12 -114 31 -220 181 -241
340 -1 11 -3 20 -4 20 -2 0 -7 63 -9 125 -3 72 9 213 24 290 10 49 10 53 18
75 3 11 8 31 11 45 6 30 50 159 64 186 5 10 27 53 47 94 21 41 44 81 52 88 7
7 13 17 13 21 0 4 28 37 63 73 59 61 125 110 155 115 8 1 16 4 20 7 13 13 119
5 157 -13z m5218 -89 c-13 -59 -26 -122 -29 -141 -3 -18 -8 -43 -10 -55 -3
-11 -7 -32 -10 -46 -3 -14 -7 -32 -9 -40 -5 -16 -16 -74 -20 -105 -2 -11 -4
-20 -5 -20 -1 0 -3 -11 -6 -25 -2 -14 -11 -56 -20 -95 -9 -38 -18 -81 -20 -95
-3 -14 -9 -47 -14 -75 -6 -27 -12 -59 -14 -70 -12 -65 -73 -253 -87 -271 -5
-6 -6 -14 -2 -17 3 -4 1 -7 -5 -7 -7 0 -12 -7 -12 -16 0 -26 -88 -166 -139
-221 -98 -107 -220 -129 -298 -53 -63 61 -91 164 -87 315 3 114 17 224 32 250
3 5 7 20 8 33 2 14 6 32 10 41 4 9 8 23 10 31 2 8 7 23 12 35 6 11 17 38 25
60 29 79 126 268 159 310 4 6 26 35 48 65 41 56 178 200 191 200 4 0 14 6 21
14 48 47 184 102 259 104 l35 1 -23 -107z"/>
<path d="M14628 5755 c-2 -2 -27 -5 -56 -9 -103 -12 -215 -91 -271 -190 -137
-239 -18 -547 244 -633 78 -25 250 9 314 63 12 10 31 26 40 34 10 8 28 31 39
49 l21 35 -41 24 c-40 24 -41 24 -54 6 -56 -79 -122 -116 -216 -122 -82 -5
-141 20 -203 83 -67 70 -92 139 -90 245 2 113 23 166 95 241 69 72 167 94 269
59 58 -19 92 -45 133 -102 12 -17 16 -16 58 12 25 16 39 30 33 30 -7 0 -13 6
-13 14 0 21 -87 102 -133 124 -36 17 -161 44 -169 37z"/>
<path d="M15362 5748 c-132 -23 -259 -133 -302 -263 -20 -59 -21 -63 -25 -143
-10 -235 180 -439 395 -425 25 2 54 3 65 4 60 1 245 134 245 176 0 7 3 13 8
13 9 0 32 54 50 120 11 42 13 157 3 198 -53 213 -246 355 -439 320z m159 -111
c149 -63 222 -262 158 -433 -30 -79 -114 -165 -181 -183 -63 -18 -198 -4 -198
20 0 5 -6 9 -14 9 -23 0 -85 71 -113 130 -23 47 -27 68 -27 145 0 50 2 99 5
110 28 98 105 182 194 212 42 14 133 9 176 -10z"/>
<path d="M9145 5742 c-6 -4 -33 -61 -59 -127 -27 -66 -55 -133 -62 -150 -46
-109 -146 -352 -148 -360 -4 -12 -13 -35 -43 -104 -36 -83 -32 -91 40 -81 40
5 40 5 76 95 20 50 43 103 51 119 l15 30 150 -1 c83 -1 159 -2 171 -2 17 -1
30 -23 70 -122 l48 -120 33 3 c17 1 35 0 38 -4 3 -3 15 -4 25 -1 14 4 17 9 10
22 -14 27 -52 115 -54 126 -2 6 -9 26 -18 45 -8 19 -23 58 -33 85 -10 28 -25
59 -32 70 -7 11 -13 25 -13 32 0 7 -9 35 -21 61 -32 73 -36 81 -75 177 -20 50
-42 104 -49 120 -7 17 -18 45 -25 63 -11 28 -17 32 -49 32 -20 0 -41 -4 -46
-8z m60 -169 c10 -27 23 -61 30 -78 20 -49 95 -242 95 -246 0 -4 -275 -3 -291
0 -6 1 90 250 123 321 6 14 12 28 14 33 1 4 2 9 3 12 3 12 10 2 26 -42z"/>
<path d="M9678 5738 c-2 -7 -3 -195 -2 -418 0 -324 3 -404 13 -402 8 1 32 3
55 4 l41 0 0 147 0 146 148 2 c170 2 211 15 272 85 90 105 88 256 -5 362 -65
74 -90 80 -316 83 -155 2 -203 0 -206 -9z m382 -92 c113 -36 141 -210 48 -301
l-31 -30 -147 -3 -147 -4 0 171 c-1 149 1 170 16 173 31 7 236 1 261 -6z"/>
<path d="M10403 5731 c2 -10 1 -24 -3 -31 -4 -7 -4 -26 0 -44 4 -17 4 -40 0
-51 -4 -11 -5 -24 -3 -28 7 -11 9 -247 3 -247 -3 0 -5 -31 -5 -70 0 -38 2 -70
5 -70 5 0 4 -68 0 -80 -2 -3 -1 -9 0 -15 1 -5 2 -46 2 -90 1 -44 4 -82 9 -85
4 -3 27 -4 51 -2 l43 4 0 126 c-1 188 -15 169 133 169 148 0 195 7 237 36 171
120 154 381 -31 472 -34 17 -66 20 -243 23 -196 2 -203 2 -198 -17z m396 -91
c86 -46 116 -163 65 -254 -35 -65 -67 -76 -224 -76 l-135 0 0 168 c0 92 3 169
7 172 15 12 263 3 287 -10z"/>
<path d="M11313 5723 c-12 -28 -35 -84 -38 -93 -5 -14 -27 -67 -35 -85 -5 -11
-25 -60 -45 -110 -20 -49 -43 -106 -53 -125 -9 -19 -17 -40 -18 -46 -1 -7 -13
-38 -27 -70 -14 -33 -46 -107 -70 -166 l-45 -108 57 1 57 1 18 47 c11 25 27
64 37 86 10 23 21 53 25 69 3 15 15 31 25 34 26 10 329 6 339 -4 5 -5 25 -52
45 -104 41 -108 61 -143 76 -134 6 3 28 6 50 6 l39 -1 -16 37 c-9 20 -28 69
-44 108 -26 65 -229 562 -249 609 -5 11 -13 32 -20 48 -9 23 -16 27 -53 27
-37 0 -45 -4 -55 -27z m62 -121 c1 -4 11 -29 23 -56 12 -27 22 -50 22 -52 0
-2 20 -55 45 -118 25 -64 45 -119 45 -123 0 -5 -67 -8 -148 -8 l-149 0 44 110
c25 60 51 124 58 140 7 17 20 51 30 78 15 40 29 53 30 29z"/>
<path d="M11860 5330 c0 -327 3 -420 12 -414 7 4 30 7 53 5 l40 -2 0 145 c0
123 2 147 15 150 33 8 210 4 210 -5 0 -6 14 -29 30 -52 45 -61 114 -171 113
-178 -1 -3 8 -17 21 -31 18 -22 32 -27 76 -29 43 -2 54 1 52 12 -2 7 -7 16
-11 19 -3 3 -12 16 -19 30 -13 28 -22 42 -69 112 -18 26 -33 51 -33 54 0 4
-11 22 -25 40 -33 43 -32 50 10 70 76 36 138 153 129 243 -4 43 -35 131 -46
131 -4 0 -8 5 -8 11 0 16 -58 65 -100 86 -29 15 -70 18 -242 20 l-208 3 0
-420z m406 310 c16 -7 42 -30 58 -51 57 -80 36 -204 -43 -257 -33 -21 -43 -22
-175 -20 l-140 3 -1 167 c0 142 2 168 15 170 45 9 258 0 286 -12z"/>
<path d="M12639 5747 c-1 -1 -2 -186 -3 -410 -2 -372 -1 -409 15 -417 9 -5 19
-7 22 -3 4 3 30 5 59 4 29 -2 60 -2 68 -2 17 1 29 1 158 -2 50 -1 92 1 92 4 0
3 21 3 48 -1 78 -10 96 -1 99 47 2 32 -2 42 -15 45 -9 2 -113 3 -229 2 l-213
-1 0 144 0 143 158 0 c257 -2 229 -7 228 43 l-1 42 -193 0 -193 0 3 135 3 135
220 0 220 0 0 45 0 45 -272 2 c-150 2 -274 2 -274 0z"/>
<path d="M13349 5738 c-1 -7 -2 -194 -3 -416 l-1 -402 75 0 c41 0 119 -1 173
-2 53 -2 97 1 97 5 0 5 4 6 8 3 8 -5 48 -7 157 -6 l60 0 0 45 c0 33 -4 45 -15
46 -8 1 -107 2 -220 4 -113 1 -211 3 -217 4 -10 1 -13 81 -13 366 l0 365 -50
0 c-33 0 -50 -4 -51 -12z"/>
<path d="M15917 5043 c-2 -5 -4 -33 -3 -63 1 -49 3 -55 26 -60 46 -12 60 4 60
70 l0 60 -39 0 c-22 0 -42 -3 -44 -7z"/>
</g>
</svg>
